<?xml version="1.0" standalone="no"?>
<!DOCTYPE svg PUBLIC "-//W3C//DTD SVG 1.1//EN" "http://www.w3.org/Graphics/SVG/1.1/DTD/svg11.dtd" >
<svg>
<metadata>
Created by FontForge 20110222 at Mon Mar  7 13:18:00 2011
 By www-data
Copyright (c) 2009 by Samuel Carnoky. All rights reserved.

</metadata>
<defs>
<font id="LECO1976-Regular" horiz-adv-x="300" >
  <font-face 
    font-family="LECO 1976-Regular"
    font-weight="400"
    font-stretch="normal"
    units-per-em="1000"
    panose-1="2 0 5 3 0 0 0 2 0 4"
    ascent="700"
    descent="-300"
    x-height="700"
    cap-height="700"
    bbox="-70 -245 1225 945"
    underline-thickness="140"
    underline-position="-70"
    unicode-range="U+0020-2122"
  />
    <missing-glyph />
    <glyph glyph-name="space" unicode=" " horiz-adv-x="540"
 />
    <glyph glyph-name="exclam" unicode="!" horiz-adv-x="280" 
d="M70 210v490h140v-490h-140zM70 0v140h140v-140h-140z" />
    <glyph glyph-name="quotedbl" unicode="&#x22;" horiz-adv-x="490" 
d="M70 420v280h140v-280h-140zM280 420v280h140v-280h-140z" />
    <glyph glyph-name="numbersign" unicode="#" 
d="M385 0v140h-140v-140h-140v140h-35v140h35v140h-35v140h35v140h140v-140h140v140h140v-140h35v-140h-35v-140h35v-140h-35v-140h-140zM245 420v-140h140v140h-140z" />
    <glyph glyph-name="dollar" unicode="$" 
d="M70 280v420h175v140h140v-140h175v-140h-350v-140h350v-420h-175v-140h-140v140h-175v140h350v140h-350z" />
    <glyph glyph-name="percent" unicode="%" horiz-adv-x="910" 
d="M525 0v349l-244 -349h-140l195 280h-266v420h315v-351l245 351h140l-196 -280h266v-420h-315zM630 315v-210h105v210h-105zM175 595v-210h105v210h-105z" />
    <glyph glyph-name="ampersand" unicode="&#x26;" horiz-adv-x="665" 
d="M70 0v700h490v-140h-350v-140h420v-140h-70v-280h-490zM210 280v-140h210v140h-210z" />
    <glyph glyph-name="quotesingle" unicode="'" horiz-adv-x="280" 
d="M70 420v280h140v-280h-140z" />
    <glyph glyph-name="parenleft" unicode="(" horiz-adv-x="420" 
d="M210 350l175 -491h-140l-175 491l175 490h140z" />
    <glyph glyph-name="parenright" unicode=")" horiz-adv-x="420" 
d="M35 -141l175 491l-175 490h140l175 -490l-175 -491h-140z" />
    <glyph glyph-name="asterisk" unicode="*" horiz-adv-x="540" 
d="M315 280h-105v113l-96 -62l-57 88l108 70l-108 71l57 88l96 -63v115h105v-114l95 62l57 -88l-109 -71l109 -70l-57 -88l-95 61v-112z" />
    <glyph glyph-name="plus" unicode="+" horiz-adv-x="540" 
d="M70 280v140h140v140h140v-140h140v-140h-140v-140h-140v140h-140z" />
    <glyph glyph-name="comma" unicode="," horiz-adv-x="280" 
d="M70 -140v280h140v-280h-140z" />
    <glyph glyph-name="hyphen" unicode="-" horiz-adv-x="420" 
d="M70 280v140h280v-140h-280z" />
    <glyph glyph-name="period" unicode="." horiz-adv-x="280" 
d="M70 0v140h140v-140h-140z" />
    <glyph glyph-name="slash" unicode="/" horiz-adv-x="420" 
d="M35 0l210 700h140l-210 -700h-140z" />
    <glyph glyph-name="zero" unicode="0" horiz-adv-x="540"
d="M70 0v700h490v-700h-490zM210 560v-420h210v420h-210z" />
    <glyph glyph-name="one" unicode="1" horiz-adv-x="540"
d="M110 560v140h280v-560h140v-140h-420v140h140v420h-140z" />
    <glyph glyph-name="two" unicode="2" horiz-adv-x="540"
d="M70 490v210h490v-420h-350v-140h350v-140h-490v420h350v140h-210v-70h-140z" />
    <glyph glyph-name="three" unicode="3" horiz-adv-x="540"
d="M560 700v-700h-490v140h350v140h-280v140h280v140h-350v140h490z" />
    <glyph glyph-name="four" unicode="4" horiz-adv-x="540"
d="M210 700v-280h210v280h140v-700h-140v280h-350v420h140z" />
    <glyph glyph-name="five" unicode="5" horiz-adv-x="540"
d="M70 0v210h140v-70h210v140h-350v420h490v-140h-350v-140h350v-420h-490z" />
    <glyph glyph-name="six" unicode="6" horiz-adv-x="540"
d="M70 0v700h490v-140h-350v-140h350v-420h-490zM210 280v-140h210v140h-210z" />
    <glyph glyph-name="seven" unicode="7" horiz-adv-x="540"
d="M420,0v560H194v-70H70v210h490V0H420z" />
    <glyph glyph-name="eight" unicode="8" horiz-adv-x="540"
d="M70 0v700h490v-700h-490zM420 280h-210v-140h210v140zM210 420h210v140h-210v-140z" />
    <glyph glyph-name="nine" unicode="9" horiz-adv-x="540"
d="M560 700v-700h-490v140h350v140h-350v420h490zM210 560v-140h210v140h-210z" />
    <glyph glyph-name="colon" unicode=":" horiz-adv-x="280" 
d="M70 0v140h140v-140h-140zM70 420v140h140v-140h-140z" />
    <glyph glyph-name="semicolon" unicode=";" horiz-adv-x="280" 
d="M70 -140v280h140v-280h-140zM70 420v140h140v-140h-140z" />
    <glyph glyph-name="less" unicode="&#x3c;" horiz-adv-x="525" 
d="M35 280v140l420 175v-140l-252 -105l252 -105v-140z" />
    <glyph glyph-name="equal" unicode="=" horiz-adv-x="540" 
d="M70 420v140h420v-140h-420zM70 140v140h420v-140h-420z" />
    <glyph glyph-name="greater" unicode="&#x3e;" horiz-adv-x="525" 
d="M490 420v-140l-420 -175v140l252 105l-252 105v140z" />
    <glyph glyph-name="question" unicode="?" 
d="M560 700v-420h-210v-70h-140v210h210v140h-210v-70h-140v210h490zM210 0v140h140v-140h-140z" />
    <glyph glyph-name="at" unicode="@" horiz-adv-x="700" 
d="M70 -140v840h560v-630h-350v420h210v70h-280v-560h420v-140h-560zM420 350v-140h70v140h-70z" />
    <glyph glyph-name="A" unicode="A" 
d="M420 0v280h-210v-280h-140v700h490v-700h-140zM210 560v-140h210v140h-210z" />
    <glyph glyph-name="B" unicode="B" 
d="M70 0v700h490v-280l-70 -70l70 -70v-280h-490zM420 280h-210v-140h210v140zM210 420h210v140h-210v-140z" />
    <glyph glyph-name="C" unicode="C" 
d="M70 0v700h490v-140h-350v-420h350v-140h-490z" />
    <glyph glyph-name="D" unicode="D" 
d="M350 140l70 70v280l-70 70h-140v-420h140zM560 560v-420l-140 -140h-350v700h350z" />
    <glyph glyph-name="E" unicode="E" 
d="M70 0v700h490v-140h-350v-140h280v-140h-280v-140h350v-140h-490z" />
    <glyph glyph-name="F" unicode="F" horiz-adv-x="595" 
d="M70 0v700h490v-140h-350v-140h280v-140h-280v-280h-140z" />
    <glyph glyph-name="G" unicode="G" 
d="M70 0v700h490v-140h-350v-420h210v140h-140v140h280v-420h-490z" />
    <glyph glyph-name="H" unicode="H" 
d="M420 0v280h-210v-280h-140v700h140v-280h210v280h140v-700h-140z" />
    <glyph glyph-name="I" unicode="I" horiz-adv-x="280" 
d="M70 0v700h140v-700h-140z" />
    <glyph glyph-name="J" unicode="J" horiz-adv-x="595" 
d="M70 560v140h455v-700h-455v140h315v420h-315z" />
    <glyph glyph-name="K" unicode="K" 
d="M210 420l210 280h166l-210 -280h184v-420h-140v280h-210v-280h-140v700h140v-280z" />
    <glyph glyph-name="L" unicode="L" horiz-adv-x="525" 
d="M210 700v-560h280v-140h-420v700h140z" />
    <glyph glyph-name="M" unicode="M" horiz-adv-x="840" 
d="M360 0l-160 404v-404h-130v700h147l203 -534l203 534h147v-700h-130v404l-160 -404h-120z" />
    <glyph glyph-name="N" unicode="N" horiz-adv-x="665" 
d="M217 700l248 -466v466h130v-700h-150l-245 457v-457h-130v700h147z" />
    <glyph glyph-name="O" unicode="O" 
d="M70 0v700h490v-700h-490zM210 560v-420h210v420h-210z" />
    <glyph glyph-name="P" unicode="P" horiz-adv-x="595" 
d="M70 0v700h490v-420h-350v-280h-140zM210 560v-140h210v140h-210z" />
    <glyph glyph-name="Q" unicode="Q" horiz-adv-x="665" 
d="M70 0v700h490v-700h140v-140h-280v140h-350zM210 560v-420h210v420h-210z" />
    <glyph glyph-name="R" unicode="R" 
d="M420 0l-210 280v-280h-140v700h490v-420h-184l210 -280h-166zM420 410v150h-210v-150h210z" />
    <glyph glyph-name="S" unicode="S" 
d="M70 280v420h490v-140h-350v-140h350v-420h-490v140h350v140h-350z" />
    <glyph glyph-name="T" unicode="T" horiz-adv-x="540" 
d="M35 560v140h490v-140h-175v-560h-140v560h-175z" />
    <glyph glyph-name="U" unicode="U" 
d="M70 0v700h140v-560h210v560h140v-700h-490z" />
    <glyph glyph-name="V" unicode="V" 
d="M250 0l-250 700h147l168 -505l167 505h148l-250 -700h-130z" />
    <glyph glyph-name="W" unicode="W" horiz-adv-x="910" 
d="M565 0l-110 428l-110 -428h-170l-175 700h147l114 -508l124 508h140l123 -508l115 508h147l-175 -700h-170z" />
    <glyph glyph-name="X" unicode="X" 
d="M165 700l150 -226l150 226h165l-233 -350l233 -350h-165l-150 226l-150 -226h-165l232 350l-232 350h165z" />
    <glyph glyph-name="Y" unicode="Y" 
d="M70 280v420h140v-280h210v280h140v-420h-175v-280h-140v280h-175z" />
    <glyph glyph-name="Z" unicode="Z" 
d="M560 140v-140h-490v420h350v140h-350v140h490v-420h-350v-140h350z" />
    <glyph glyph-name="bracketleft" unicode="[" horiz-adv-x="385" 
d="M210 700v-700h140v-140h-280v980h280v-140h-140z" />
    <glyph glyph-name="backslash" unicode="\" horiz-adv-x="420" 
d="M175 700l210 -700h-140l-210 700h140z" />
    <glyph glyph-name="bracketright" unicode="]" horiz-adv-x="385" 
d="M175 0v700h-140v140h280v-980h-280v140h140z" />
    <glyph glyph-name="asciicircum" unicode="^" horiz-adv-x="540" 
d="M210 700h140l175 -420h-140l-105 252l-105 -252h-140z" />
    <glyph glyph-name="underscore" unicode="_" horiz-adv-x="540" 
d="M70 -140v140h420v-140h-420z" />
    <glyph glyph-name="grave" unicode="`" 
d="M280 735l-140 140h140l140 -140h-140z" />
    <glyph glyph-name="a" unicode="a" 
d="M70 490v210h490v-700h-490v420h350v140h-210v-70h-140zM210 280v-140h210v140h-210z" />
    <glyph glyph-name="b" unicode="b" 
d="M35 560v140h525v-700h-525v140h70v420h-70zM420 420v140h-175v-140h175zM420 140v140h-175v-140h175z" />
    <glyph glyph-name="c" unicode="c" 
d="M70 0v700h490v-210h-140v70h-210v-420h210v70h140v-210h-490z" />
    <glyph glyph-name="d" unicode="d" 
d="M35 560v140h525v-700h-525v140h70v420h-70zM420 140v420h-175v-420h175z" />
    <glyph glyph-name="e" unicode="e" 
d="M70 0v700h490v-420h-350v-140h210v70h140v-210h-490zM210 560v-140h210v140h-210z" />
    <glyph glyph-name="f" unicode="f" horiz-adv-x="595" 
d="M70 0v700h490v-210h-140v70h-210v-140h280v-140h-280v-280h-140z" />
    <glyph glyph-name="g" unicode="g" 
d="M70 0v210h140v-70h210v140h-350v420h490v-700h-490zM210 560v-140h210v140h-210z" />
    <glyph glyph-name="h" unicode="h" 
d="M420 0v280h-210v-280h-140v700h140v-280h210v280h140v-700h-140z" />
    <glyph glyph-name="i" unicode="i" horiz-adv-x="280" 
d="M70 0v700h140v-700h-140z" />
    <glyph glyph-name="j" unicode="j" horiz-adv-x="595" 
d="M70 560v140h455v-700h-455v210h140v-70h175v420h-315z" />
    <glyph glyph-name="k" unicode="k" 
d="M350 280h-140v-280h-140v700h140v-280h210v280h140v-420h-70v-140h70v-140h-210v280z" />
    <glyph glyph-name="l" unicode="l" horiz-adv-x="525" 
d="M210 700v-560h280v-140h-420v700h140z" />
    <glyph glyph-name="m" unicode="m" horiz-adv-x="840" 
d="M350 0v560h-140v-560h-140v700h700v-700h-140v560h-140v-560h-140z" />
    <glyph glyph-name="n" unicode="n" 
d="M420 0v560h-210v-560h-140v700h490v-700h-140z" />
    <glyph glyph-name="o" unicode="o" 
d="M70 0v700h490v-700h-490zM210 560v-420h210v420h-210z" />
    <glyph glyph-name="p" unicode="p" horiz-adv-x="595" 
d="M70 0v700h490v-420h-350v-280h-140zM210 560v-140h210v140h-210z" />
    <glyph glyph-name="q" unicode="q" 
d="M420 -140v140h-350v700h490v-840h-140zM210 560v-420h210v420h-210z" />
    <glyph glyph-name="r" unicode="r" 
d="M350 280h-140v-280h-140v700h490v-420h-70v-140h70v-140h-210v280zM210 410h210v150h-210v-150z" />
    <glyph glyph-name="s" unicode="s" 
d="M70 280v420h490v-210h-140v70h-210v-140h350v-420h-490v210h140v-70h210v140h-350z" />
    <glyph glyph-name="t" unicode="t" horiz-adv-x="540" 
d="M35 560v140h490v-140h-175v-560h-140v560h-175z" />
    <glyph glyph-name="u" unicode="u" horiz-adv-x="665" 
d="M70 0v700h140v-560h210v560h140v-560h70v-140h-560z" />
    <glyph glyph-name="v" unicode="v" 
d="M420 140v560h140v-700h-490v700h140v-560h210z" />
    <glyph glyph-name="w" unicode="w" horiz-adv-x="840" 
d="M350 140v560h140v-560h140v560h140v-700h-700v700h140v-560h140z" />
    <glyph glyph-name="x" unicode="x" 
d="M595 140v-140h-210v280h-140v-280h-210v140h70v420h-70v140h210v-280h140v280h210v-140h-70v-420h70z" />
    <glyph glyph-name="y" unicode="y" 
d="M70 0v210h140v-70h210v140h-350v420h140v-280h210v280h140v-700h-490z" />
    <glyph glyph-name="z" unicode="z" 
d="M420 140v70h140v-210h-490v420h350v140h-210v-70h-140v210h490v-420h-350v-140h210z" />
    <glyph glyph-name="braceleft" unicode="{" horiz-adv-x="420" 
d="M245 -140l-140 140v280h-70v140h70v280l140 140h140v-140h-140v-280l-70 -70l70 -70v-280h140v-140h-140z" />
    <glyph glyph-name="bar" unicode="|" horiz-adv-x="280" 
d="M70 -140v980h140v-980h-140z" />
    <glyph glyph-name="braceright" unicode="}" horiz-adv-x="420" 
d="M315 0l-140 -140h-140v140h140v280l70 70l-70 70v280h-140v140h140l140 -140v-280h70v-140h-70v-280z" />
    <glyph glyph-name="asciitilde" unicode="~" 
d="M315 280l-70 70l-70 -70h-140l140 140h140l70 -70l70 70h140l-140 -140h-140z" />
    <glyph glyph-name="Euro" unicode="&#x20ac;" 
d="M35 280v140h70v280h455v-210h-140v70h-175v-140h105v-140h-105v-140h175v70h140v-210h-455v280h-70z" />
    <glyph glyph-name="quotesinglbase" unicode="&#x201a;" horiz-adv-x="280" 
d="M70 -140v280h140v-280h-140z" />
    <glyph glyph-name="florin" unicode="&#x192;" horiz-adv-x="540" 
d="M35 280v140h70v280h420v-140h-280v-140h210v-140h-210v-420h-140v420h-70z" />
    <glyph glyph-name="quotedblbase" unicode="&#x201e;" horiz-adv-x="490" 
d="M70 -140v280h140v-280h-140zM280 -140v280h140v-280h-140z" />
    <glyph glyph-name="ellipsis" unicode="&#x2026;" horiz-adv-x="840" 
d="M70 0v140h140v-140h-140zM350 0v140h140v-140h-140zM630 0v140h140v-140h-140z" />
    <glyph glyph-name="dagger" unicode="&#x2020;" horiz-adv-x="540" 
d="M70 420v140h140v140h140v-140h140v-140h-140v-420h-140v420h-140z" />
    <glyph glyph-name="daggerdbl" unicode="&#x2021;" horiz-adv-x="540" 
d="M70 420v140h140v140h140v-140h140v-140h-140v-140h140v-140h-140v-140h-140v140h-140v140h140v140h-140z" />
    <glyph glyph-name="circumflex" unicode="&#x2c6;" 
d="M385 875l140 -140h-140l-70 70l-70 -70h-140l140 140h140z" />
    <glyph glyph-name="perthousand" unicode="&#x2030;" horiz-adv-x="1295" 
d="M525 0v349l-244 -349h-140l195 280h-266v420h315v-351l245 351h140l-196 -280h266v-420h-315zM910 0v420h315v-420h-315zM175 595v-210h105v210h-105zM630 315v-210h105v210h-105zM1015 315v-210h105v210h-105z" />
    <glyph glyph-name="guilsinglleft" unicode="&#x2039;" horiz-adv-x="385" 
d="M175 350l140 -140h-140l-140 140l140 140h140z" />
    <glyph glyph-name="guilsinglright" unicode="&#x203a;" horiz-adv-x="385" 
d="M210 490l140 -140l-140 -140h-140l140 140l-140 140h140z" />
    <glyph glyph-name="quoteleft" unicode="&#x2018;" horiz-adv-x="280" 
d="M70 560v280h140v-280h-140z" />
    <glyph glyph-name="quoteright" unicode="&#x2019;" horiz-adv-x="280" 
d="M70 560v280h140v-280h-140z" />
    <glyph glyph-name="quotedblleft" unicode="&#x201c;" horiz-adv-x="490" 
d="M70 560v280h140v-280h-140zM280 560v280h140v-280h-140z" />
    <glyph glyph-name="quotedblright" unicode="&#x201d;" horiz-adv-x="490" 
d="M70 560v280h140v-280h-140zM280 560v280h140v-280h-140z" />
    <glyph glyph-name="bullet" unicode="&#x2022;" horiz-adv-x="540" 
d="M70 140v420h420v-420h-420z" />
    <glyph glyph-name="endash" unicode="&#x2013;" horiz-adv-x="665" 
d="M70 280v140h525v-140h-525z" />
    <glyph glyph-name="emdash" unicode="&#x2014;" horiz-adv-x="840" 
d="M70 280v140h700v-140h-700z" />
    <glyph glyph-name="trademark" unicode="&#x2122;" horiz-adv-x="980" 
d="M805 280v203l-80 -203h-85l-80 203v-203h-105v420h105l122 -312l123 312h105v-420h-105zM70 595v105h315v-105h-105v-315h-105v315h-105z" />
    <glyph glyph-name="cent" unicode="&#xa2;" 
d="M70 70v560h175v140h140v-140h175v-210h-140v70h-210v-280h210v70h140v-210h-175v-140h-140v140h-175z" />
    <glyph glyph-name="sterling" unicode="&#xa3;" 
d="M35 280v140h70v280h420v-210h-140v70h-140v-140h105v-140h-105v-140h315v-140h-525v140h70v140h-70z" />
    <glyph glyph-name="currency" unicode="&#xa4;" 
d="M525 41l-99 99h-222l-99 -99l-99 99l99 99v222l-99 98l99 99l99 -98h223l98 98l99 -98l-99 -99v-222l99 -99zM245 420v-140h140v140h-140z" />
    <glyph glyph-name="yen" unicode="&#xa5;" 
d="M70 280v420h140v-280h210v280h140v-420h-175v-70h140v-140h-140v-70h-140v70h-140v140h140v70h-175z" />
    <glyph glyph-name="brokenbar" unicode="&#xa6;" horiz-adv-x="280" 
d="M70 420v420h140v-420h-140zM70 -140v420h140v-420h-140z" />
    <glyph glyph-name="section" unicode="&#xa7;" 
d="M70 140v700h490v-210h-140v70h-210v-140h350v-700h-490v210h140v-70h210v140h-350zM420 420h-210v-140h210v140z" />
    <glyph glyph-name="copyright" unicode="&#xa9;" horiz-adv-x="735" 
d="M70 0v700h595v-700h-595zM210 560v-420h315v140h-105v-35h-105v210h105v-35h105v140h-315z" />
    <glyph glyph-name="ordfeminine" unicode="&#xaa;" horiz-adv-x="455" 
d="M70 280v420h315v-420h-105v105h-105v-105h-105zM70 70v140h315v-140h-315zM175 595v-105h105v105h-105z" />
    <glyph glyph-name="guillemotleft" unicode="&#xab;" horiz-adv-x="665" 
d="M175 350l140 -140h-140l-140 140l140 140h140zM315 350l140 140h140l-140 -140l140 -140h-140z" />
    <glyph glyph-name="guillemotright" unicode="&#xbb;" horiz-adv-x="665" 
d="M70 210l140 140l-140 140h140l140 -140l-140 -140h-140zM350 210l140 140l-140 140h140l140 -140l-140 -140h-140z" />
    <glyph glyph-name="logicalnot" unicode="&#xac;" horiz-adv-x="540" 
d="M490 140h-140v140h-280v140h420v-280z" />
    <glyph glyph-name="registered" unicode="&#xae;" horiz-adv-x="735" 
d="M70 0v700h595v-700h-595zM210 560v-420h105v175l125 -175h115l-125 175h95v245h-315zM420 455v-70h-105v70h105z" />
    <glyph glyph-name="degree" unicode="&#xb0;" horiz-adv-x="455" 
d="M70 385v315h315v-315h-315zM175 595v-105h105v105h-105z" />
    <glyph glyph-name="plusminus" unicode="&#xb1;" horiz-adv-x="540" 
d="M70 280v140h140v140h140v-140h140v-140h-140v-140h140v-140h-420v140h140v140h-140z" />
    <glyph glyph-name="twosuperior" unicode="&#xb2;" horiz-adv-x="455" 
d="M70 560v140h315v-245h-210v-70h210v-105h-315v245h210v70h-105v-35h-105z" />
    <glyph glyph-name="threesuperior" unicode="&#xb3;" horiz-adv-x="455" 
d="M70 595v105h315v-420h-315v105h210v70h-175v70h175v70h-210z" />
    <glyph glyph-name="paragraph" unicode="&#xb6;" 
d="M560 560v-700h-140v700h-70v-280h-280v420h560v-140h-70z" />
    <glyph glyph-name="periodcentered" unicode="&#xb7;" horiz-adv-x="280" 
d="M70 280v140h140v-140h-140z" />
    <glyph glyph-name="onesuperior" unicode="&#xb9;" horiz-adv-x="455" 
d="M70 595v105h210v-315h105v-105h-315v105h105v210h-105z" />
    <glyph glyph-name="ordmasculine" unicode="&#xba;" horiz-adv-x="455" 
d="M70 280v420h315v-420h-315zM70 70v140h315v-140h-315zM175 595v-210h105v210h-105z" />
    <glyph glyph-name="exclamdown" unicode="&#xa1;" horiz-adv-x="280" 
d="M210 490v-490h-140v490h140zM210 700v-140h-140v140h140z" />
    <glyph glyph-name="questiondown" unicode="&#xbf;" 
d="M70 0v420h210v70h140v-210h-210v-140h210v70h140v-210h-490zM420 700v-140h-140v140h140z" />
    <glyph glyph-name="multiply" unicode="&#xd7;" horiz-adv-x="540" 
d="M181 152l-99 99l99 99l-99 99l99 99l99 -99l99 99l99 -99l-99 -99l99 -99l-99 -99l-99 99z" />
    <glyph glyph-name="onequarter" unicode="&#xbc;" horiz-adv-x="910" 
d="M525 140v209l-244 -349h-140l195 280h-266v105h105v210h-105v105h210v-315h105v-36l245 351h140l-196 -280h56v-175h105v175h105v-420h-105v140h-210z" />
    <glyph glyph-name="onehalf" unicode="&#xbd;" horiz-adv-x="910" 
d="M525 280v69l-244 -349h-140l195 280h-266v105h105v210h-105v105h210v-315h105v-36l245 351h140l-196 -280h266v-245h-210v-70h210v-105h-315v245h210v70h-105v-35h-105z" />
    <glyph glyph-name="threequarters" unicode="&#xbe;" horiz-adv-x="910" 
d="M525 140v209l-244 -349h-140l195 280h-266v105h210v70h-175v70h175v70h-210v105h315v-351l245 351h140l-196 -280h56v-175h105v175h105v-420h-105v140h-210z" />
    <glyph glyph-name="acute" unicode="&#xb4;" 
d="M490 875l-140 -140h-140l140 140h140z" />
    <glyph glyph-name="cedilla" unicode="&#xb8;" 
d="M210 -245v140h105v105h105v-245h-210z" />
    <glyph glyph-name="dieresis" unicode="&#xa8;" 
d="M350 735v140h140v-140h-140zM140 735v140h140v-140h-140z" />
    <glyph glyph-name="macron" unicode="&#xaf;" 
d="M175 735v140h280v-140h-280z" />
    <glyph glyph-name="tilde" unicode="&#x2dc;" 
d="M525 840l-105 -105h-140v70l-35 -35h-140l105 105h140v-70l35 35h140z" />
    <glyph glyph-name="Aacute" unicode="&#xc1;" 
d="M420 0v280h-210v-280h-140v700h490v-700h-140zM210 560v-140h210v140h-210zM490 875l-140 -140h-140l140 140h140z" />
    <glyph glyph-name="Acircumflex" unicode="&#xc2;" 
d="M420 0v280h-210v-280h-140v700h490v-700h-140zM210 560v-140h210v140h-210zM385 875l140 -140h-140l-70 70l-70 -70h-140l140 140h140z" />
    <glyph glyph-name="Agrave" unicode="&#xc0;" 
d="M420 0v280h-210v-280h-140v700h490v-700h-140zM210 560v-140h210v140h-210zM280 735l-140 140h140l140 -140h-140z" />
    <glyph glyph-name="Adieresis" unicode="&#xc4;" 
d="M350 735v140h140v-140h-140zM140 735v140h140v-140h-140zM420 0v280h-210v-280h-140v700h490v-700h-140zM210 560v-140h210v140h-210z" />
    <glyph glyph-name="Aring" unicode="&#xc5;" 
d="M420 0v280h-210v-280h-140v700h490v-700h-140zM210 560v-140h210v140h-210zM210 735v210h210v-210h-210zM280 875v-70h70v70h-70z" />
    <glyph glyph-name="Atilde" unicode="&#xc3;" 
d="M420 0v280h-210v-280h-140v700h490v-700h-140zM210 560v-140h210v140h-210zM525 840l-105 -105h-140v70l-35 -35h-140l105 105h140v-70l35 35h140z" />
    <glyph glyph-name="AE" unicode="&#xc6;" horiz-adv-x="980" 
d="M420 0v280h-210v-280h-140v700h840v-140h-350v-140h280v-140h-280v-140h350v-140h-490zM210 560v-140h210v140h-210z" />
    <glyph glyph-name="Ccedilla" unicode="&#xc7;" 
d="M70 0v700h490v-140h-350v-420h350v-140h-140v-245h-210v140h105v105h-245z" />
    <glyph glyph-name="Eacute" unicode="&#xc9;" 
d="M70 0v700h490v-140h-350v-140h280v-140h-280v-140h350v-140h-490zM490 875l-140 -140h-140l140 140h140z" />
    <glyph glyph-name="Ecircumflex" unicode="&#xca;" 
d="M70 0v700h490v-140h-350v-140h280v-140h-280v-140h350v-140h-490zM385 875l140 -140h-140l-70 70l-70 -70h-140l140 140h140z" />
    <glyph glyph-name="Edieresis" unicode="&#xcb;" 
d="M70 0v700h490v-140h-350v-140h280v-140h-280v-140h350v-140h-490zM350 735v140h140v-140h-140zM140 735v140h140v-140h-140z" />
    <glyph glyph-name="Egrave" unicode="&#xc8;" 
d="M70 0v700h490v-140h-350v-140h280v-140h-280v-140h350v-140h-490zM280 735l-140 140h140l140 -140h-140z" />
    <glyph glyph-name="Iacute" unicode="&#xcd;" horiz-adv-x="280" 
d="M70 0v700h140v-700h-140zM350 875l-140 -140h-140l140 140h140z" />
    <glyph glyph-name="Icircumflex" unicode="&#xce;" horiz-adv-x="280" 
d="M70 0v700h140v-700h-140zM210 875l140 -140h-140l-70 70l-70 -70h-140l140 140h140z" />
    <glyph glyph-name="Idieresis" unicode="&#xcf;" horiz-adv-x="280" 
d="M70 0v700h140v-700h-140zM175 735v140h140v-140h-140zM-35 735v140h140v-140h-140z" />
    <glyph glyph-name="Igrave" unicode="&#xcc;" horiz-adv-x="280" 
d="M70 0v700h140v-700h-140zM70 735l-140 140h140l140 -140h-140z" />
    <glyph glyph-name="Ntilde" unicode="&#xd1;" horiz-adv-x="665" 
d="M570 840l-105 -105h-140l-45 70l-35 -35h-140l105 105h140l45 -70l35 35h140zM217 700l248 -466v466h130v-700h-150l-245 457v-457h-130v700h147z" />
    <glyph glyph-name="Oacute" unicode="&#xd3;" 
d="M70 0v700h490v-700h-490zM210 560v-420h210v420h-210zM490 875l-140 -140h-140l140 140h140z" />
    <glyph glyph-name="Ocircumflex" unicode="&#xd4;" 
d="M70 0v700h490v-700h-490zM210 560v-420h210v420h-210zM385 875l140 -140h-140l-70 70l-70 -70h-140l140 140h140z" />
    <glyph glyph-name="Odieresis" unicode="&#xd6;" 
d="M70 0v700h490v-700h-490zM210 560v-420h210v420h-210zM350 735v140h140v-140h-140zM140 735v140h140v-140h-140z" />
    <glyph glyph-name="Ograve" unicode="&#xd2;" 
d="M70 0v700h490v-700h-490zM210 560v-420h210v420h-210zM280 735l-140 140h140l140 -140h-140z" />
    <glyph glyph-name="Oslash" unicode="&#xd8;" 
d="M140 -35h-140l70 110v625h397l23 35h140l-70 -110v-625h-398zM251 140h169v265zM210 560v-265l168 265h-168z" />
    <glyph glyph-name="Oslashacute" unicode="&#x1fe;" 
d="M140 -35h-140l70 110v625h397l23 35h140l-70 -110v-625h-398zM210 560v-265l168 265h-168zM251 140h169v265zM490 875l-140 -140h-140l140 140h140z" />
    <glyph glyph-name="Otilde" unicode="&#xd5;" 
d="M70 0v700h490v-700h-490zM210 560v-420h210v420h-210zM525 840l-105 -105h-140v70l-35 -35h-140l105 105h140v-70l35 35h140z" />
    <glyph glyph-name="OE" unicode="&#x152;" horiz-adv-x="980" 
d="M70 0v700h840v-140h-350v-140h280v-140h-280v-140h350v-140h-840zM210 560v-420h210v420h-210z" />
    <glyph glyph-name="Scaron" unicode="&#x160;" 
d="M70 280v420h490v-140h-350v-140h350v-420h-490v140h350v140h-350zM525 875l-140 -140h-140l-140 140h140l70 -70l70 70h140z" />
    <glyph glyph-name="Uacute" unicode="&#xda;" 
d="M70 0v700h140v-560h210v560h140v-700h-490zM490 875l-140 -140h-140l140 140h140z" />
    <glyph glyph-name="Ucircumflex" unicode="&#xdb;" 
d="M70 0v700h140v-560h210v560h140v-700h-490zM385 875l140 -140h-140l-70 70l-70 -70h-140l140 140h140z" />
    <glyph glyph-name="Udieresis" unicode="&#xdc;" 
d="M70 0v700h140v-560h210v560h140v-700h-490zM350 735v140h140v-140h-140zM140 735v140h140v-140h-140z" />
    <glyph glyph-name="Ugrave" unicode="&#xd9;" 
d="M70 0v700h140v-560h210v560h140v-700h-490zM280 735l-140 140h140l140 -140h-140z" />
    <glyph glyph-name="Yacute" unicode="&#xdd;" 
d="M70 280v420h140v-280h210v280h140v-420h-175v-280h-140v280h-175zM490 875l-140 -140h-140l140 140h140z" />
    <glyph glyph-name="Ydieresis" unicode="&#x178;" 
d="M70 280v420h140v-280h210v280h140v-420h-175v-280h-140v280h-175zM350 735v140h140v-140h-140zM140 735v140h140v-140h-140z" />
    <glyph glyph-name="Zcaron" unicode="&#x17d;" 
d="M560 140v-140h-490v420h350v140h-350v140h490v-420h-350v-140h350zM525 875l-140 -140h-140l-140 140h140l70 -70l70 70h140z" />
    <glyph glyph-name="Eth" unicode="&#xd0;" 
d="M0 280v140h70v280h350l140 -140v-420l-140 -140h-350v280h-70zM350 140l70 70v280l-70 70h-140v-140h105v-140h-105v-140h140z" />
    <glyph glyph-name="Thorn" unicode="&#xde;" 
d="M70 0v700h140v-140h350v-420h-350v-140h-140zM210 420v-140h210v140h-210z" />
    <glyph glyph-name="divide" unicode="&#xf7;" horiz-adv-x="540" 
d="M210 0v140h140v-140h-140zM210 560v140h140v-140h-140zM70 280v140h420v-140h-420z" />
    <glyph glyph-name="aacute" unicode="&#xe1;" 
d="M70 490v210h490v-700h-490v420h350v140h-210v-70h-140zM210 280v-140h210v140h-210zM490 875l-140 -140h-140l140 140h140z" />
    <glyph glyph-name="abreve" unicode="&#x103;" 
d="M70 490v210h490v-700h-490v420h350v140h-210v-70h-140zM210 280v-140h210v140h-210zM175 735l-70 70v70h140v-70h140v70h140v-70l-70 -70h-280z" />
    <glyph glyph-name="acircumflex" unicode="&#xe2;" 
d="M70 490v210h490v-700h-490v420h350v140h-210v-70h-140zM210 280v-140h210v140h-210zM385 875l140 -140h-140l-70 70l-70 -70h-140l140 140h140z" />
    <glyph glyph-name="agrave" unicode="&#xe0;" 
d="M70 490v210h490v-700h-490v420h350v140h-210v-70h-140zM210 280v-140h210v140h-210zM280 735l-140 140h140l140 -140h-140z" />
    <glyph glyph-name="adieresis" unicode="&#xe4;" 
d="M70 490v210h490v-700h-490v420h350v140h-210v-70h-140zM210 280v-140h210v140h-210zM350 735v140h140v-140h-140zM140 735v140h140v-140h-140z" />
    <glyph glyph-name="amacron" unicode="&#x101;" 
d="M70 490v210h490v-700h-490v420h350v140h-210v-70h-140zM210 280v-140h210v140h-210zM175 735v140h280v-140h-280z" />
    <glyph glyph-name="aring" unicode="&#xe5;" 
d="M70 490v210h490v-700h-490v420h350v140h-210v-70h-140zM210 280v-140h210v140h-210zM210 735v210h210v-210h-210zM280 875v-70h70v70h-70z" />
    <glyph glyph-name="atilde" unicode="&#xe3;" 
d="M70 490v210h490v-700h-490v420h350v140h-210v-70h-140zM210 280v-140h210v140h-210zM525 840l-105 -105h-140v70l-35 -35h-140l105 105h140v-70l35 35h140z" />
    <glyph glyph-name="ae" unicode="&#xe6;" horiz-adv-x="980" 
d="M70 0v420h350v140h-210v-70h-140v210h840v-420h-350v-140h210v70h140v-210h-840zM210 280v-140h210v140h-210zM560 560v-140h210v140h-210z" />
    <glyph glyph-name="ccedilla" unicode="&#xe7;" 
d="M70 0v700h490v-210h-140v70h-210v-420h210v70h140v-210h-140v-245h-210v140h105v105h-245z" />
    <glyph glyph-name="eacute" unicode="&#xe9;" 
d="M70 0v700h490v-420h-350v-140h210v70h140v-210h-490zM210 560v-140h210v140h-210zM490 875l-140 -140h-140l140 140h140z" />
    <glyph glyph-name="ecircumflex" unicode="&#xea;" 
d="M70 0v700h490v-420h-350v-140h210v70h140v-210h-490zM210 560v-140h210v140h-210zM385 875l140 -140h-140l-70 70l-70 -70h-140l140 140h140z" />
    <glyph glyph-name="edieresis" unicode="&#xeb;" 
d="M70 0v700h490v-420h-350v-140h210v70h140v-210h-490zM210 560v-140h210v140h-210zM350 735v140h140v-140h-140zM140 735v140h140v-140h-140z" />
    <glyph glyph-name="egrave" unicode="&#xe8;" 
d="M70 0v700h490v-420h-350v-140h210v70h140v-210h-490zM210 560v-140h210v140h-210zM280 735l-140 140h140l140 -140h-140z" />
    <glyph glyph-name="iacute" unicode="&#xed;" horiz-adv-x="280" 
d="M70 0v700h140v-700h-140zM350 875l-140 -140h-140l140 140h140z" />
    <glyph glyph-name="icircumflex" unicode="&#xee;" horiz-adv-x="280" 
d="M70 0v700h140v-700h-140zM210 875l140 -140h-140l-70 70l-70 -70h-140l140 140h140z" />
    <glyph glyph-name="idieresis" unicode="&#xef;" horiz-adv-x="280" 
d="M70 0v700h140v-700h-140zM175 735v140h140v-140h-140zM-35 735v140h140v-140h-140z" />
    <glyph glyph-name="igrave" unicode="&#xec;" horiz-adv-x="280" 
d="M70 0v700h140v-700h-140zM70 735l-140 140h140l140 -140h-140z" />
    <glyph glyph-name="ncommaaccent" unicode="&#x146;" 
d="M245 -245l35 210h140l-35 -210h-140zM420 0v560h-210v-560h-140v700h490v-700h-140z" />
    <glyph glyph-name="ntilde" unicode="&#xf1;" 
d="M525 840l-105 -105h-140v70l-35 -35h-140l105 105h140v-70l35 35h140zM420 0v560h-210v-560h-140v700h490v-700h-140z" />
    <glyph glyph-name="oacute" unicode="&#xf3;" 
d="M70 0v700h490v-700h-490zM210 560v-420h210v420h-210zM490 875l-140 -140h-140l140 140h140z" />
    <glyph glyph-name="ocircumflex" unicode="&#xf4;" 
d="M70 0v700h490v-700h-490zM210 560v-420h210v420h-210zM385 875l140 -140h-140l-70 70l-70 -70h-140l140 140h140z" />
    <glyph glyph-name="odieresis" unicode="&#xf6;" 
d="M70 0v700h490v-700h-490zM210 560v-420h210v420h-210zM350 735v140h140v-140h-140zM140 735v140h140v-140h-140z" />
    <glyph glyph-name="ograve" unicode="&#xf2;" 
d="M70 0v700h490v-700h-490zM210 560v-420h210v420h-210zM280 735l-140 140h140l140 -140h-140z" />
    <glyph glyph-name="oslash" unicode="&#xf8;" 
d="M140 -35h-140l70 110v625h397l23 35h140l-70 -110v-625h-398zM251 140h169v265zM210 560v-265l168 265h-168z" />
    <glyph glyph-name="otilde" unicode="&#xf5;" 
d="M70 0v700h490v-700h-490zM210 560v-420h210v420h-210zM525 840l-105 -105h-140v70l-35 -35h-140l105 105h140v-70l35 35h140z" />
    <glyph glyph-name="oe" unicode="&#x153;" horiz-adv-x="980" 
d="M70 0v700h840v-420h-350v-140h210v70h140v-210h-840zM210 560v-420h210v420h-210zM560 560v-140h210v140h-210z" />
    <glyph glyph-name="scaron" unicode="&#x161;" 
d="M525 875l-140 -140h-140l-140 140h140l70 -70l70 70h140zM70 280v420h490v-210h-140v70h-210v-140h350v-420h-490v210h140v-70h210v140h-350z" />
    <glyph glyph-name="uacute" unicode="&#xfa;" horiz-adv-x="665" 
d="M490 875l-140 -140h-140l140 140h140zM70 0v700h140v-560h210v560h140v-560h70v-140h-560z" />
    <glyph glyph-name="ucircumflex" unicode="&#xfb;" horiz-adv-x="665" 
d="M385 875l140 -140h-140l-70 70l-70 -70h-140l140 140h140zM70 0v700h140v-560h210v560h140v-560h70v-140h-560z" />
    <glyph glyph-name="udieresis" unicode="&#xfc;" horiz-adv-x="665" 
d="M350 735v140h140v-140h-140zM140 735v140h140v-140h-140zM70 0v700h140v-560h210v560h140v-560h70v-140h-560z" />
    <glyph glyph-name="ugrave" unicode="&#xf9;" horiz-adv-x="665" 
d="M280 735l-140 140h140l140 -140h-140zM70 0v700h140v-560h210v560h140v-560h70v-140h-560z" />
    <glyph glyph-name="yacute" unicode="&#xfd;" 
d="M70 0v210h140v-70h210v140h-350v420h140v-280h210v280h140v-700h-490zM490 875l-140 -140h-140l140 140h140z" />
    <glyph glyph-name="ycircumflex" unicode="&#x177;" 
d="M70 0v210h140v-70h210v140h-350v420h140v-280h210v280h140v-700h-490zM385 875l140 -140h-140l-70 70l-70 -70h-140l140 140h140z" />
    <glyph glyph-name="ydieresis" unicode="&#xff;" 
d="M70 0v210h140v-70h210v140h-350v420h140v-280h210v280h140v-700h-490zM350 735v140h140v-140h-140zM140 735v140h140v-140h-140z" />
    <glyph glyph-name="zcaron" unicode="&#x17e;" 
d="M525 875l-140 -140h-140l-140 140h140l70 -70l70 70h140zM420 140v70h140v-210h-490v420h350v140h-210v-70h-140v210h490v-420h-350v-140h210z" />
    <glyph glyph-name="eth" unicode="&#xf0;" 
d="M35 280v140h70v140h-70v140h525v-700h-525v140h70v140h-70zM420 140v420h-175v-140h105v-140h-105v-140h175z" />
    <glyph glyph-name="thorn" unicode="&#xfe;" 
d="M70 -140v980h140v-140h350v-700h-350v-140h-140zM210 560v-420h210v420h-210z" />
    <glyph glyph-name="germandbls" unicode="&#xdf;" 
d="M210 560v-700h-140v840h490v-700h-280v140h140v140h-140v140h140v140h-210z" />
    <glyph glyph-name="mu" unicode="&#xb5;" 
d="M70 -140v840h140v-560h210v560h140v-700h-350v-140h-140z" />
  </font>
</defs>
</svg>
